<svg width="913" height="459" viewBox="0 0 913 459" fill="none" xmlns="http://www.w3.org/2000/svg">
<path d="M354.591 197.75H822.214L734.652 290.775C724.267 301.806 724.267 319.694 734.652 330.727C739.844 336.241 746.65 339 753.455 339C760.261 339 767.066 336.241 772.257 330.725L905.212 189.474C915.596 178.444 915.596 160.556 905.212 149.523L772.257 8.27302C761.874 -2.75767 745.037 -2.75767 734.652 8.27302C724.267 19.3037 724.267 37.1917 734.652 48.2242L822.214 141.25H354.591C339.906 141.25 328 153.898 328 169.5C328 185.101 339.906 197.75 354.591 197.75Z" fill="black"/>
<line x1="343" y1="459.002" x2="343" y2="141" stroke="black" stroke-width="50"/>
<line y1="434" x2="318.002" y2="434" stroke="black" stroke-width="50"/>
</svg>
